<?xml version="1.0" encoding="UTF-8"?>
<svg version="1.1" xmlns="http://www.w3.org/2000/svg" width="869" height="869">
<path d="M0 0 C286.77 0 573.54 0 869 0 C869 286.77 869 573.54 869 869 C582.23 869 295.46 869 0 869 C0 582.23 0 295.46 0 0 Z " fill="#FEFEFE" transform="translate(0,0)"/>
<path d="M0 0 C0.77964615 -0.00705963 1.5592923 -0.01411926 2.36256409 -0.02139282 C33.63622143 -0.23867955 63.59581283 3.05794079 94.23046875 9.203125 C95.10977051 9.37424805 95.98907227 9.54537109 96.89501953 9.72167969 C119.70005743 14.21425728 141.47736371 22.92111559 162.23046875 33.203125 C163.61903076 33.88810059 163.61903076 33.88810059 165.03564453 34.58691406 C179.97545273 42.02115284 194.73641927 50.02512828 207.23046875 61.203125 C206.68282677 65.22860321 205.5600662 67.47618191 203.06640625 70.65625 C198.97804196 76.09404766 195.19392623 81.69035119 191.45703125 87.375 C190.84430359 88.30622681 190.23157593 89.23745361 189.60028076 90.19689941 C187.68326996 93.11428591 185.76922653 96.03360378 183.85546875 98.953125 C181.32768935 102.80265273 178.79857407 106.65130222 176.26953125 110.5 C175.3468898 111.90480118 175.3468898 111.90480118 174.40560913 113.33798218 C170.23202303 119.68965918 166.03266969 126.02329511 161.80908203 132.34179688 C159.30328158 136.09079761 156.80816551 139.8468507 154.31369019 143.60339355 C151.93492184 147.18511444 149.55369416 150.76519733 147.17236328 154.34521484 C145.96384855 156.16302107 144.75616221 157.98137831 143.54931641 159.80029297 C135.98151802 171.2043593 128.30229266 182.50789759 120.33493042 193.63723755 C119.27413717 195.14121264 118.25136178 196.67178545 117.23046875 198.203125 C114.24294038 196.85349595 112.10913845 195.32116879 109.73046875 193.078125 C104.6181671 188.51289622 98.97661981 184.91432461 93.23046875 181.203125 C92.14636719 180.46835938 91.06226563 179.73359375 89.9453125 178.9765625 C65.68510583 162.63539951 38.51422761 155.01474566 9.421875 155.01782227 C7.13131729 155.01564952 4.84125332 154.99747975 2.55078125 154.97851562 C-10.47887493 154.927123 -23.18751781 156.0074542 -35.76953125 159.640625 C-37.07168579 160.01598389 -37.07168579 160.01598389 -38.40014648 160.39892578 C-58.82807735 166.65560518 -76.61658008 177.41342611 -92.76953125 191.203125 C-93.55199219 191.85023438 -94.33445312 192.49734375 -95.140625 193.1640625 C-118.83744209 213.28787597 -134.4690524 245.16171136 -140.76953125 275.203125 C-140.9176123 275.89583496 -141.06569336 276.58854492 -141.21826172 277.30224609 C-150.5752535 323.20085915 -141.68859394 372.68078236 -116.76953125 412.203125 C-95.64084735 443.5748739 -63.18164913 466.88275749 -25.76953125 474.203125 C-15.07410788 475.86168636 -4.59612289 476.61129903 6.23046875 476.578125 C6.94013794 476.57724884 7.64980713 476.57637268 8.38098145 476.57546997 C48.62113931 476.41314786 82.23898414 462.12014985 112.64331055 436.48071289 C116.75945344 433.16741097 116.75945344 433.16741097 119.58740234 433.38183594 C122.61013004 434.32109845 124.86135887 435.62428786 127.51953125 437.34375 C128.545625 438.00375 129.57171875 438.66375 130.62890625 439.34375 C131.69367188 440.03984375 132.7584375 440.7359375 133.85546875 441.453125 C134.86609375 442.1028125 135.87671875 442.7525 136.91796875 443.421875 C144.2574101 448.16985928 151.47748711 453.08455794 158.68399048 458.03138733 C168.16353598 464.53776709 177.69620046 470.96481741 187.23046875 477.390625 C188.16291412 478.01942566 189.0953595 478.64822632 190.05606079 479.29608154 C200.94008517 486.63542996 211.83407983 493.95902758 222.76498413 501.22839355 C226.35086895 503.61408441 229.93285106 506.00563714 233.515625 508.39599609 C235.30508395 509.58714494 237.096706 510.77505147 238.890625 511.95947266 C241.23923864 513.51084631 243.57955765 515.07393448 245.91796875 516.640625 C246.57885498 517.07197754 247.23974121 517.50333008 247.9206543 517.94775391 C249.6796875 519.13671875 249.6796875 519.13671875 252.23046875 521.203125 C252.23046875 524.81989608 251.60255806 525.27406239 249.234375 527.87109375 C248.59258301 528.57669434 247.95079102 529.28229492 247.28955078 530.00927734 C237.46677179 540.47495105 227.45552625 550.29573968 215.94873047 558.890625 C214.18578239 560.23725883 212.47313423 561.63072837 210.765625 563.046875 C164.06022065 601.72238478 108.36295266 621.29094163 48.76757812 628.87841797 C47.15317912 629.0850337 45.53973358 629.29935337 43.92773438 629.52392578 C-41.38001267 641.23610776 -134.21594196 616.90398379 -202.70703125 565.2578125 C-208.89090645 560.51354802 -214.80581422 555.52539719 -220.54296875 550.24609375 C-222.58381051 548.37353192 -224.66416822 546.56482966 -226.76953125 544.765625 C-234.35637983 538.14437533 -241.25928799 530.872542 -247.76953125 523.203125 C-248.56746094 522.29433594 -249.36539063 521.38554688 -250.1875 520.44921875 C-258.00864568 511.47930181 -264.9845186 501.97345816 -271.76953125 492.203125 C-272.23858887 491.53361816 -272.70764648 490.86411133 -273.19091797 490.17431641 C-305.85809784 443.15569273 -305.85809784 443.15569273 -302.76953125 424.203125 C-301.52964326 421.72036852 -300.39475923 419.83114966 -298.76953125 417.640625 C-298.33382813 417.02058594 -297.898125 416.40054687 -297.44921875 415.76171875 C-296.46197507 414.35907746 -295.46665286 412.96209975 -294.46484375 411.56982422 C-291.88839732 407.9730397 -289.37324548 404.33415875 -286.8503418 400.69970703 C-285.45836394 398.69511519 -284.06397715 396.69219404 -282.66723633 394.69091797 C-278.46472551 388.66803106 -274.32915008 382.60920641 -270.27856445 376.48339844 C-266.02170237 370.05128251 -261.63483968 363.71028838 -257.25537109 357.36132812 C-254.58427566 353.4815247 -251.92764647 349.59182736 -249.26953125 345.703125 C-244.83387122 339.21598034 -240.38849836 332.73565907 -235.93359375 326.26171875 C-232.37022526 321.08144606 -228.81849423 315.89327508 -225.26953125 310.703125 C-221.27716074 304.86451742 -217.27908661 299.02994504 -213.26953125 293.203125 C-207.08529477 284.2151427 -200.92752405 275.20909923 -194.76953125 266.203125 C-188.16797033 256.54843889 -181.56322085 246.89609189 -174.93310547 237.26098633 C-171.36987545 232.08097448 -167.81832861 226.89303288 -164.26953125 221.703125 C-159.83375362 215.21606054 -155.38849859 208.73565941 -150.93359375 202.26171875 C-147.37022526 197.08144606 -143.81849423 191.89327508 -140.26953125 186.703125 C-136.27716074 180.86451742 -132.27908661 175.02994504 -128.26953125 169.203125 C-122.08529477 160.2151427 -115.92752405 151.20909923 -109.76953125 142.203125 C-103.16797033 132.54843889 -96.56322085 122.89609189 -89.93310547 113.26098633 C-86.36987545 108.08097448 -82.81832861 102.89303288 -79.26953125 97.703125 C-74.83375362 91.21606054 -70.38849859 84.73565941 -65.93359375 78.26171875 C-62.37022495 73.08144561 -58.81864311 67.89317365 -55.26953125 62.703125 C-53.62820845 60.30411982 -51.98674857 57.90520852 -50.34521484 55.50634766 C-49.32433093 54.01409187 -48.30380061 52.52159409 -47.28369141 51.02880859 C-41.34094552 42.33452881 -35.3293263 33.6979945 -29.171875 25.15429688 C-27.57331216 22.93011265 -25.98403656 20.69941532 -24.39453125 18.46875 C-23.22805554 16.83840503 -22.06139074 15.20819532 -20.89453125 13.578125 C-20.34684082 12.80742676 -19.79915039 12.03672852 -19.23486328 11.24267578 C-13.4510559 3.18888908 -10.21579098 0.06056697 0 0 Z " fill="#ED3237" transform="translate(612.76953125,29.796875)"/>
<path d="M0 0 C2.6515242 -0.0092198 5.30287081 -0.02155905 7.9543457 -0.03761292 C14.37089711 -0.06911401 20.78667419 -0.05806099 27.20321999 -0.03128677 C32.42534467 -0.01036979 37.64725858 -0.00570669 42.8694191 -0.01230049 C43.61652829 -0.01323763 44.36363749 -0.01417477 45.13338635 -0.01514031 C46.65179543 -0.0171261 48.17020446 -0.01915411 49.68861343 -0.02122385 C63.88367835 -0.03880914 78.0783207 -0.00836597 92.27329601 0.03939497 C104.41315569 0.07920013 116.55249698 0.08004557 128.69238281 0.05175781 C142.83820646 0.01882585 156.98373558 0.0086781 171.12958252 0.03530496 C172.64259279 0.03810457 174.15560309 0.04088241 175.66861343 0.04363823 C176.41276311 0.04501315 177.15691278 0.04638806 177.92361244 0.04780464 C183.12922784 0.05594853 188.33468038 0.04839011 193.54027939 0.03465462 C199.89916482 0.01838645 206.2574292 0.02786922 212.61621343 0.06867189 C215.85138804 0.08884074 219.08538719 0.09473468 222.32060623 0.07718277 C237.81740651 0.00192638 250.27570811 1.51294885 264.40283203 8.01928711 C266.22026628 8.7782807 268.03878646 9.53470033 269.85986328 10.28491211 C271.31546107 10.93802158 272.76740979 11.59933331 274.21533203 12.26928711 C275.02607178 12.64077881 275.83681152 13.01227051 276.67211914 13.39501953 C279.25574114 14.58933769 281.83050629 15.8008423 284.40283203 17.01928711 C285.74764648 17.65374756 285.74764648 17.65374756 287.11962891 18.30102539 C307.10809344 27.80506772 324.99832085 39.34372768 342.61962891 52.69750977 C344.17909855 53.85344742 345.78768172 54.94252024 347.40283203 56.01928711 C346.7569114 60.15112863 344.53956807 63.36806658 342.34033203 66.83178711 C341.90841553 67.51756836 341.47649902 68.20334961 341.03149414 68.90991211 C335.06851304 78.25845351 328.63388995 87.29082574 322.26269531 96.36303711 C319.78648255 99.89955521 317.3408879 103.45640516 314.90283203 107.01928711 C311.86790038 111.45088556 308.8138993 115.86818358 305.73486328 120.26928711 C298.05219205 131.25521356 290.49679589 142.3112499 283.08325195 153.48071289 C279.10170773 159.47760666 275.09783681 165.45700557 271.02783203 171.39428711 C270.35820435 172.37546509 270.35820435 172.37546509 269.67504883 173.37646484 C268.03134139 175.76408739 266.4573568 177.96476234 264.40283203 180.01928711 C259.32454931 179.77557385 255.60582803 177.69227786 251.37939453 175.08178711 C250.71555756 174.68282227 250.05172058 174.28385742 249.36776733 173.87280273 C247.24892881 172.59719096 245.13816665 171.30890916 243.02783203 170.01928711 C221.29346864 156.58764479 221.29346864 156.58764479 198.15283203 145.89428711 C197.08492432 145.47888672 196.0170166 145.06348633 194.91674805 144.63549805 C191.75147626 143.41345826 188.57890506 142.21293102 185.40283203 141.01928711 C184.51515137 140.68123047 183.6274707 140.34317383 182.71289062 139.99487305 C169.2111757 134.88753181 155.46318595 131.24549077 141.40283203 128.01928711 C140.67725098 127.84913086 139.95166992 127.67897461 139.20410156 127.50366211 C123.58263138 123.88038685 107.89842741 122.84848891 91.90283203 122.76928711 C90.16803589 122.7553894 90.16803589 122.7553894 88.39819336 122.74121094 C72.06250028 122.80100569 56.61460263 125.95452624 43.40283203 136.01928711 C42.51595703 136.59678711 41.62908203 137.17428711 40.71533203 137.76928711 C33.39770441 144.88914101 30.39244789 153.7078954 29.96533203 163.70678711 C30.15209809 174.05582374 33.79127955 182.51574706 41.01220703 189.93725586 C56.21274339 203.17563148 77.35555932 208.77167907 96.40283203 214.01928711 C97.69036377 214.37821045 97.69036377 214.37821045 99.00390625 214.74438477 C112.27328602 218.41630654 125.66450844 221.4442472 139.12084961 224.33666992 C150.8014083 226.85281659 162.40855012 229.61697147 174.01220703 232.46850586 C177.78477116 233.39396645 181.55766348 234.28796401 185.35595703 235.10131836 C196.42034906 237.48426606 207.2475796 240.9416609 217.40283203 246.01928711 C216.79259078 250.22962541 214.38427144 253.37969042 212.05517578 256.82006836 C211.61157211 257.48467072 211.16796844 258.14927307 210.71092224 258.83401489 C209.25993289 261.00394137 207.80040075 263.16796158 206.34033203 265.33178711 C205.33370729 266.83233369 204.32736147 268.33306741 203.32128906 269.83398438 C196.91586141 279.37244289 190.41561369 288.840558 183.82055664 298.24902344 C179.44498245 304.49460717 175.18604138 310.8061896 170.98291016 317.16870117 C166.8416685 323.41409598 162.56961503 329.56412593 158.27783203 335.70678711 C153.46929886 342.58913731 148.6998889 349.48793559 144.07617188 356.49584961 C140.0331012 362.61435182 135.86853106 368.64909043 131.69116211 374.67651367 C130.89875122 375.82651855 130.89875122 375.82651855 130.09033203 376.99975586 C129.61982422 377.6793335 129.14931641 378.35891113 128.66455078 379.05908203 C127.42117641 380.9907873 126.38910991 382.94630927 125.40283203 385.01928711 C118.79807483 384.45392521 112.81799767 383.18315882 106.46533203 381.33178711 C98.21818417 379.00583094 89.94637765 376.91679274 81.59033203 375.01928711 C80.50478027 374.77218994 79.41922852 374.52509277 78.30078125 374.27050781 C76.09791493 373.76967881 73.89495261 373.26927192 71.69189453 372.76928711 C19.78407592 360.93282491 -36.07731504 345.93992109 -79.59716797 314.01928711 C-80.15259277 313.61645508 -80.70801758 313.21362305 -81.28027344 312.79858398 C-114.06755821 288.86016722 -136.09935738 256.51821976 -142.59716797 216.01928711 C-142.79802002 214.77816162 -142.79802002 214.77816162 -143.00292969 213.51196289 C-150.96114745 162.72797038 -142.59968524 110.3557316 -112.20410156 68.09619141 C-95.86124917 45.97775097 -75.88237131 27.98987227 -52.28466797 13.89428711 C-51.67091309 13.52311768 -51.0571582 13.15194824 -50.42480469 12.76953125 C-49.08791753 11.98909184 -47.73331215 11.23848948 -46.36566353 10.51330662 C-44.32588512 9.41253955 -42.32023501 8.24795711 -40.33625603 7.04953671 C-27.28347881 -0.36133939 -14.691104 -0.11100884 0 0 Z " fill="#00A859" transform="translate(174.59716796875,-1.019287109375)"/>
<path d="M0 0 C3.76043831 1.35708435 6.77222973 3.06672107 10.02734375 5.37890625 C11.45203979 6.3831665 11.45203979 6.3831665 12.90551758 7.40771484 C13.90607178 8.11879395 14.90662598 8.82987305 15.9375 9.5625 C18.0222868 11.02637973 20.10821946 12.48862897 22.1953125 13.94921875 C23.19981445 14.65224121 24.20431641 15.35526367 25.23925781 16.07958984 C51.52936116 34.36734656 81.46825376 51.14015079 112.92675781 58.07641602 C122.85899331 60.30555705 132.41170473 63.6130459 142 67 C140.51858008 71.17017296 138.44984752 74.56961493 135.9921875 78.2421875 C135.39590042 79.13654259 135.39590042 79.13654259 134.78756714 80.04896545 C133.48826665 81.99430065 132.18195687 83.93480202 130.875 85.875 C129.96502914 87.23240933 129.05519987 88.58991358 128.14550781 89.94750977 C120.8703509 100.78514643 113.45494149 111.52201413 105.95751953 122.20703125 C102.52204412 127.10873227 99.10518829 132.02338793 95.6875 136.9375 C95.01211182 137.90848633 94.33672363 138.87947266 93.64086914 139.87988281 C86.43966606 150.23742574 79.28482301 160.62411996 72.20703125 171.06640625 C71.78072922 171.69524216 71.35442719 172.32407806 70.91520691 172.9719696 C68.76171006 176.14905286 66.60959794 179.32706069 64.4597168 182.5065918 C63.66066451 183.68669973 62.86159307 184.86679469 62.0625 186.046875 C60.99708984 187.62227051 60.99708984 187.62227051 59.91015625 189.22949219 C58.32335269 191.53100635 56.69881406 193.78062458 55 196 C2.10041043 190.36988847 -56.89314441 150.85155189 -95 115 C-92.23555546 109.81995749 -89.14606885 105.56323717 -85.25 101.1875 C-84.17189771 99.95424225 -83.09507706 98.71986294 -82.01953125 97.484375 C-81.49955566 96.88818359 -80.97958008 96.29199219 -80.44384766 95.67773438 C-78.5494006 93.47640868 -76.73662822 91.21714073 -74.9375 88.9375 C-71.43233184 84.50149881 -67.79785178 80.18913387 -64.13427734 75.88427734 C-61.23683996 72.47511594 -58.38247953 69.03638783 -55.5625 65.5625 C-51.60491812 60.69870975 -47.53457554 55.94118769 -43.44165039 51.19165039 C-40.41054711 47.66701081 -37.43014684 44.10960118 -34.5 40.5 C-29.6354906 34.51358573 -24.60946021 28.67213589 -19.57470703 22.82910156 C-16.91941944 19.74485123 -14.27265351 16.65330332 -11.625 13.5625 C-10.67972708 12.4596015 -9.73441587 11.3567358 -8.7890625 10.25390625 C-8.33950195 9.72941895 -7.88994141 9.20493164 -7.42675781 8.66455078 C-4.95117188 5.77636719 -2.47558594 2.88818359 0 0 Z " fill="#00A859" transform="translate(95,406)"/>
<path d="M0 0 C0.88945313 0.67289062 0.88945313 0.67289062 1.796875 1.359375 C2.38984375 1.76671875 2.9828125 2.1740625 3.59375 2.59375 C10.76493025 7.98800063 15.50245364 16.79063552 17.796875 25.359375 C18.88662516 36.76373718 17.78009278 45.84385036 10.421875 54.796875 C5.35821068 60.13197419 -0.48315507 64.47085058 -6.32226562 68.90917969 C-8.80835932 70.82602763 -11.23682487 72.80932293 -13.66870117 74.79418945 C-78.87324388 127.84560523 -78.87324388 127.84560523 -104.92578125 126.62109375 C-110.79651813 125.94641215 -117.87366773 124.68883227 -122.203125 120.359375 C-122.97847578 116.39647099 -122.80934748 114.38640617 -120.734375 110.87109375 C-118.62345151 107.97695064 -116.43037674 105.16489143 -114.203125 102.359375 C-112.78144152 100.46730086 -111.36485494 98.57138732 -109.953125 96.671875 C-107.45212456 93.33434783 -104.93720885 90.0107583 -102.38671875 86.7109375 C-94.65868965 76.65431446 -87.72752559 66.23412232 -81.203125 55.359375 C-80.52588379 54.23378174 -80.52588379 54.23378174 -79.83496094 53.08544922 C-72.1319487 40.14223476 -65.78201156 26.55695414 -61.66796875 12.03515625 C-59.72516809 5.42899177 -56.49549512 1.25555378 -50.4765625 -2.2109375 C-35.5763521 -9.23933863 -13.88322474 -9.75267854 0 0 Z " fill="#ED3438" transform="translate(673.203125,310.640625)"/>
<path d="M0 0 C10.16868175 7.64301891 18.11497178 17.51829895 20.84375 30.18359375 C21.0824826 32.05276148 21.26612811 33.92945908 21.40625 35.80859375 C21.4990625 36.97261719 21.591875 38.13664063 21.6875 39.3359375 C22.27069471 53.46382931 17.89344542 65.30788008 8.40625 75.80859375 C2.48178676 81.47125583 -4.03330925 85.66247486 -11.59375 88.80859375 C-12.43035156 89.1746875 -13.26695312 89.54078125 -14.12890625 89.91796875 C-19.33436772 91.25601296 -24.42782897 91.17727703 -29.78125 91.18359375 C-30.85439453 91.20808594 -31.92753906 91.23257813 -33.03320312 91.2578125 C-46.91707629 91.30820768 -57.31026804 85.82547171 -67.34375 76.49609375 C-71.23024315 72.39012804 -74.00844198 67.81529977 -76.59375 62.80859375 C-77.21830078 61.66390625 -77.21830078 61.66390625 -77.85546875 60.49609375 C-82.64047276 50.01945338 -82.62305412 34.44284866 -79.03125 23.55859375 C-73.40612589 11.19916612 -64.57809374 1.98774275 -52.59375 -4.19140625 C-51.81902344 -4.60777344 -51.04429687 -5.02414062 -50.24609375 -5.453125 C-34.70124534 -12.47417381 -13.90679746 -9.05296393 0 0 Z " fill="#393637" transform="translate(193.59375,778.19140625)"/>
<path d="M0 0 C0.80050781 0.35449219 1.60101562 0.70898438 2.42578125 1.07421875 C4.375 2.125 4.375 2.125 7 5 C7.69883681 9.07041789 7.39647378 12.90640827 7 17 C6.9175 18.06476562 6.835 19.12953125 6.75 20.2265625 C6.53530829 22.82299039 6.28545157 25.41054643 6 28 C2.97325213 26.55727497 0.1095355 24.89424352 -2.77148438 23.18188477 C-18.60919193 13.83599654 -35.37802651 10.29222713 -53.69140625 13.68359375 C-67.14538039 17.91098328 -77.87034753 26.03600217 -84.875 38.3125 C-91.94094142 52.50996003 -93.60135619 68.34658714 -88.8125 83.5625 C-83.94001171 97.85744429 -76.50076601 107.86144631 -63 115 C-60.04307892 116.22867497 -57.09887729 117.20226921 -54 118 C-53.08118042 118.25583862 -53.08118042 118.25583862 -52.14379883 118.5168457 C-34.77644558 122.43097759 -17.71728248 117.00477017 -3 108 C-0.03 106.02 2.94 104.04 6 102 C6 110.91 6 119.82 6 129 C-15.0258053 140.55472183 -39.42463054 145.99499634 -63.37280273 139.56640625 C-66.35175783 138.56838462 -69.16558627 137.35185024 -72 136 C-73.1240625 135.50371094 -74.248125 135.00742187 -75.40625 134.49609375 C-93.46034121 125.74323411 -106.20902067 109.63261973 -113 91 C-119.23304399 70.90355977 -117.16236146 47.90851185 -107.62109375 29.3125 C-101.49476081 18.62897662 -93.91993318 10.28210088 -84 3 C-83.24332031 2.44441406 -82.48664063 1.88882813 -81.70703125 1.31640625 C-56.76950104 -15.20846317 -25.73979444 -12.62015795 0 0 Z " fill="#ED3539" transform="translate(533,728)"/>
<path d="M0 0 C5.57826247 3.96676443 11.01463885 8.74495759 14 15 C14.0078125 17.4296875 14.0078125 17.4296875 13 20 C10.6901129 21.57179899 8.68872715 22.71865378 6.1875 23.875 C5.55779297 24.1946875 4.92808594 24.514375 4.27929688 24.84375 C1.65184645 26.1119842 -0.3964594 27.04224784 -3.34375 26.8359375 C-5 26 -5 26 -6.6875 23.75 C-10.67336225 19.0100557 -15.03569494 16.38353161 -21.23046875 15.58203125 C-29.30386851 15.38693183 -34.72923401 16.08475205 -40.875 21.5625 C-44.6558412 25.89934726 -44.34308917 29.41688047 -44.26953125 35.02734375 C-43.67987351 41.53067037 -39.14328477 45.09355452 -34.48388672 49.13842773 C-29.82851667 52.62743861 -24.55948228 54.91248468 -19.3125 57.375 C12.7527546 72.95452646 12.7527546 72.95452646 18.37890625 89.0078125 C21.01600689 101.71233508 19.4657427 115.51033686 12.9375 126.75 C6.8853019 135.57983848 -2.11627112 142.48876651 -12.76757812 144.53051758 C-18.08483803 145.3028054 -23.38524561 145.22583444 -28.75 145.25 C-29.87921875 145.270625 -31.0084375 145.29125 -32.171875 145.3125 C-45.48503357 145.37413499 -54.88182027 141.70025583 -64.75 132.8125 C-69.91630214 127.4179194 -72.76256545 120.29296534 -74 113 C-71.39939496 111.65929682 -68.79495084 110.32726646 -66.1875 109 C-65.08051758 108.42765625 -65.08051758 108.42765625 -63.95117188 107.84375 C-63.23896484 107.4828125 -62.52675781 107.121875 -61.79296875 106.75 C-60.81106567 106.24726562 -60.81106567 106.24726562 -59.80932617 105.734375 C-58 105 -58 105 -55 105 C-54.731875 105.65226563 -54.46375 106.30453125 -54.1875 106.9765625 C-50.84385654 114.43376732 -47.03191521 118.41700978 -39.80078125 122.12890625 C-32.71201661 124.33364058 -23.31684906 124.3035429 -16.21875 122.16015625 C-14.11444988 120.95827714 -12.64461049 119.77479074 -11 118 C-10.22076172 117.16275391 -10.22076172 117.16275391 -9.42578125 116.30859375 C-5.76964053 111.51053511 -5.2192415 106.82135288 -5.546875 100.88671875 C-6.52421172 94.66040984 -8.8998088 91.60569422 -13.88671875 87.79296875 C-21.27930725 82.70662442 -29.25894336 78.76013775 -37.3046875 74.83203125 C-50.91181074 68.1529883 -62.54425039 60.11124029 -69 46 C-71.41297175 33.93514123 -70.59660536 21.85843312 -63.83203125 11.390625 C-58.84145647 4.87840375 -52.64480688 -0.01305418 -45 -3 C-43.75089844 -3.53173828 -43.75089844 -3.53173828 -42.4765625 -4.07421875 C-29.28451906 -7.58715616 -12.0599467 -6.4719217 0 0 Z " fill="#02A85A" transform="translate(76,724)"/>
<path d="M0 0 C6.6 0 13.2 0 20 0 C20.33 24.09 20.66 48.18 21 73 C23.31 70.36 25.62 67.72 28 65 C30.66015625 62.9765625 30.66015625 62.9765625 33.0625 61.625 C33.85785156 61.16351562 34.65320313 60.70203125 35.47265625 60.2265625 C42.31808495 56.90436063 48.30586435 56.63418243 55.8125 56.625 C56.85470703 56.60050781 57.89691406 56.57601562 58.97070312 56.55078125 C68.99155752 56.51303792 75.94983331 59.32372441 83.2734375 66.13671875 C89.14037083 72.46822825 90.12803731 78.86639973 90.11352539 87.26879883 C90.11367142 87.98153961 90.11381744 88.6942804 90.1139679 89.42861938 C90.11327432 91.7714549 90.105508 94.11420972 90.09765625 96.45703125 C90.0957901 98.08656267 90.09436713 99.71609465 90.09336853 101.34562683 C90.08955888 105.62488364 90.07974188 109.90410626 90.06866455 114.18334961 C90.05841702 118.55386899 90.05386376 122.92439393 90.04882812 127.29492188 C90.03811818 135.86329865 90.02053399 144.43164113 90 153 C83.07 153 76.14 153 69 153 C68.98541748 151.27555664 68.97083496 149.55111328 68.95581055 147.77441406 C68.90383954 142.03071876 68.83847095 136.28725665 68.76428509 130.5438118 C68.71985165 127.0668298 68.68053917 123.58995772 68.65356445 120.11279297 C68.6222046 116.10094962 68.56743079 112.08970468 68.51171875 108.078125 C68.50532883 106.84950745 68.4989389 105.62088989 68.49235535 104.3550415 C68.43806157 91.62431336 68.43806157 91.62431336 63.61943054 80.18707275 C58.02417326 75.24716824 51.72118952 75.65271633 44.6171875 75.7265625 C37.67909965 76.25103998 32.2278049 78.23236864 27.5 83.4375 C23.84907146 88.01177384 22.75321614 92.36610102 22.68115234 98.16723633 C22.66128265 99.38812454 22.64141296 100.60901276 22.62094116 101.86689758 C22.60361435 103.82963875 22.60361435 103.82963875 22.5859375 105.83203125 C22.56721453 107.19253194 22.54764027 108.55302117 22.5272522 109.91349792 C22.47604398 113.48246479 22.43635813 117.05146926 22.39910889 120.62060547 C22.35899799 124.26734635 22.30793808 127.91393234 22.2578125 131.56054688 C22.16118731 138.7069236 22.0777527 145.85338939 22 153 C14.74 153 7.48 153 0 153 C0 102.51 0 52.02 0 0 Z " fill="#3A3738" transform="translate(566,713)"/>
<path d="M0 0 C0 6.27 0 12.54 0 19 C-1.98 18.67 -3.96 18.34 -6 18 C-13.46395963 17.21301961 -13.46395963 17.21301961 -20.0625 20.1875 C-23.57966956 25.29306872 -24.2662351 29.30416835 -24.4140625 35.48828125 C-24.43342865 36.19147995 -24.4527948 36.89467865 -24.4727478 37.6191864 C-24.53220183 39.85017019 -24.57879049 42.08120654 -24.625 44.3125 C-24.66321137 45.83140186 -24.70226492 47.35028278 -24.7421875 48.86914062 C-24.83945037 52.5793139 -24.91928606 56.28928263 -25 60 C-17.74 60 -10.48 60 -3 60 C-3 65.94 -3 71.88 -3 78 C-10.26 78 -17.52 78 -25 78 C-25 102.75 -25 127.5 -25 153 C-31.93 153 -38.86 153 -46 153 C-46 128.25 -46 103.5 -46 78 C-51.28 78 -56.56 78 -62 78 C-62 72.06 -62 66.12 -62 60 C-56.72 60 -51.44 60 -46 60 C-46.05220703 56.54466797 -46.05220703 56.54466797 -46.10546875 53.01953125 C-46.12898898 50.74228143 -46.14713412 48.4650461 -46.16479492 46.18774414 C-46.17970976 44.6274593 -46.20004901 43.06721506 -46.22631836 41.50708008 C-46.64560773 15.93042838 -46.64560773 15.93042838 -38.734375 6.6484375 C-27.76880497 -3.77379348 -13.95261418 -3.48815354 0 0 Z " fill="#383536" transform="translate(287,713)"/>
<path d="M0 0 C7.26 0 14.52 0 22 0 C22 11.88 22 23.76 22 36 C27.28 36 32.56 36 38 36 C38 41.94 38 47.88 38 54 C32.72 54 27.44 54 22 54 C22 78.75 22 103.5 22 129 C15.07 129 8.14 129 1 129 C1 104.25 1 79.5 1 54 C-4.61 54 -10.22 54 -16 54 C-16 47.73 -16 41.46 -16 35 C-10.72 35 -5.44 35 0 35 C0 23.45 0 11.9 0 0 Z " fill="#3A3738" transform="translate(304,737)"/>
<path d="M0 0 C6.93 0 13.86 0 21 0 C21 50.49 21 100.98 21 153 C14.07 153 7.14 153 0 153 C0 102.51 0 52.02 0 0 Z " fill="#383536" transform="translate(792,713)"/>
<path d="M0 0 C6.93 0 13.86 0 21 0 C21 50.49 21 100.98 21 153 C14.07 153 7.14 153 0 153 C0 102.51 0 52.02 0 0 Z " fill="#373435" transform="translate(739,713)"/>
<path d="M0 0 C7.42353441 4.61253079 13.61008881 10.53326461 15.8671875 19.16015625 C17.22733503 29.86624287 16.75550476 39.44476992 10.2890625 48.328125 C5.93468973 53.71224809 1.48349354 56.9547209 -5.1328125 59.16015625 C-13.97829791 59.95333826 -21.59220073 60.32452381 -29.0859375 54.91796875 C-36.53042749 48.52479986 -40.50417193 41.559576 -41.48046875 31.62109375 C-41.72504969 21.68898063 -40.09366006 14.86228586 -33.94921875 7.0546875 C-25.30247736 -1.96395674 -11.69850021 -5.39737671 0 0 Z " fill="#FDFDFD" transform="translate(176.1328125,790.83984375)"/>
<path d="M0 0 C7.26 0 14.52 0 22 0 C22 31.02 22 62.04 22 94 C14.74 94 7.48 94 0 94 C0 62.98 0 31.96 0 0 Z " fill="#3F3C3D" transform="translate(844,772)"/>
<path d="M0 0 C6.93 0 13.86 0 21 0 C21 30.69 21 61.38 21 93 C14.07 93 7.14 93 0 93 C0 62.31 0 31.62 0 0 Z " fill="#373435" transform="translate(686,773)"/>
<path d="M0 0 C4.34088674 1.49957906 5.35113349 3.17525671 7.4375 7.1875 C9.92242617 14.64227851 7.61775246 19.95806186 4.3203125 26.66796875 C-4.91782641 43.93677198 -17.68791442 57.47512045 -31.4375 71.25 C-31.9355011 71.74917938 -32.4335022 72.24835876 -32.94659424 72.76266479 C-48.37556078 88.1875 -48.37556078 88.1875 -52.5625 88.1875 C-51.27102814 84.71087307 -49.75890871 81.7236562 -47.7265625 78.625 C-47.16275879 77.75625244 -46.59895508 76.88750488 -46.01806641 75.99243164 C-45.11193604 74.60399048 -45.11193604 74.60399048 -44.1875 73.1875 C-37.72193407 63.15325585 -31.65421197 52.95070201 -25.85839844 42.51660156 C-24.69083639 40.41815734 -23.50743802 38.32959464 -22.3203125 36.2421875 C-17.93464426 28.40430477 -14.49360186 20.41737444 -11.43847656 11.97436523 C-9.2161878 6.04727786 -7.05821397 0.37148495 0 0 Z " fill="#FDFAFA" transform="translate(636.5625,320.8125)"/>
<path d="M0 0 C2.875 1.3125 2.875 1.3125 5 4 C6.815722 13.6943766 3.09462896 20.92890884 -2.0625 28.8125 C-3.55098899 30.98008742 -5.02149819 33.02476861 -6.74609375 35.01171875 C-8.21575649 36.89570984 -8.21575649 36.89570984 -7.81640625 39.01953125 C-6.99111797 41.02154636 -6.03028424 42.81919147 -4.9375 44.6875 C-2.6593707 49.15230086 -2.20823605 53.05830087 -3 58 C-4.5 61.5625 -4.5 61.5625 -6 64 C-9.23953469 61.64397477 -11.78040451 59.13469843 -14.3125 56.0625 C-21.71808577 47.55160292 -30.38073241 45.47506367 -41 43 C-40.875 41.25 -40.875 41.25 -40 39 C-36.14357385 35.7020502 -33.11548421 34.65193093 -28.08666992 34.24536133 C-23.18683577 33.81597373 -19.16785144 33.29448594 -15.73046875 29.484375 C-12.4896052 22.82214412 -11.04102065 15.59718795 -10.0222168 8.29418945 C-9.61566541 5.49027826 -9.28047664 3.38672963 -7.59765625 1.06640625 C-4.97716169 -0.68272581 -3.06264573 -0.4287704 0 0 Z " fill="#05A95C" transform="translate(697,257)"/>
<path d="M0 0 C4.11929631 1.55617861 6.29828798 4.0462866 8.33203125 7.97265625 C9.58883022 11.78715135 9.19849466 15.2116548 8 19 C5.9046118 22.64752761 3.12048372 25.82271894 -1 27 C-5.31240294 27.64686044 -7.58681074 27.93480395 -11.26171875 25.50390625 C-17.63477798 20.00042064 -17.63477798 20.00042064 -18.34375 16.1171875 C-18.6057511 12.35747172 -18.57863099 9.90581501 -16.5078125 6.6640625 C-11.25121738 0.62224985 -7.97036892 -0.73338464 0 0 Z " fill="#3C393A" transform="translate(701,719)"/>
<path d="M0 0 C3.37604652 2.04191311 6.22195185 4.44390371 8 8 C8.54317573 12.9509132 8.52241949 16.89488185 6.375 21.4375 C2.77972043 25.31661743 -0.22114825 26.74125793 -5.4375 27.5 C-9.92900016 26.86961401 -12.80707693 25.20134767 -16 22 C-18.75594956 17.6088537 -18.78491333 13.02661668 -18 8 C-14.34042136 0.85580266 -7.56423237 -1.50013348 0 0 Z " fill="#3B3839" transform="translate(860,719)"/>
</svg>
